<svg width="185" height="37" viewBox="0 0 185 37" fill="none" xmlns="http://www.w3.org/2000/svg">
<g filter="url(#filter0_d)">
<path d="M4.61 27.08C5.41 26.82 6.15 26.36 6.83 25.7C7.53 25.04 8.04 24.21 8.36 23.21C8.58 22.53 8.74 21.72 8.84 20.78C8.94 19.82 8.99 18.48 8.99 16.76V2.99L6.29 2.57V0.709999H15.89V2.57L13.37 2.96V14.75C13.37 16.89 13.34 18.55 13.28 19.73C13.24 20.89 13.14 21.82 12.98 22.52C12.56 24.14 11.7 25.48 10.4 26.54C9.1 27.62 7.5 28.32 5.6 28.64L4.61 27.08ZM24.9088 0.589999H29.4988L36.4288 20.9L38.1688 21.2V23H29.3188V21.2L31.5688 20.9L30.3988 17H22.6288L21.4588 20.93L23.8888 21.2V23H16.2387L16.2087 21.2L18.0088 20.9L24.9088 0.589999ZM26.9788 5.66L26.4388 3.32L25.8688 5.69L23.1988 14.9H29.7988L26.9788 5.66ZM42.5832 2.96L39.3432 2.57V0.709999H48.7032L52.2732 13.61L53.1132 17.12L53.8332 13.61L57.3732 0.709999H66.6432V2.57L63.3732 2.96L65.7732 20.87L68.2032 21.2V23H58.6332V21.2L61.2732 20.9L59.9532 7.76L59.3832 2.27L58.2732 6.89L53.9232 22.07H50.7432L46.3032 7.67L44.7732 2.27L44.3232 7.76L43.1832 20.9L46.2132 21.2V23H37.8732V21.2L40.3932 20.9L42.5832 2.96ZM76.4713 0.589999H81.0613L87.9913 20.9L89.7313 21.2V23H80.8813V21.2L83.1313 20.9L81.9613 17H74.1913L73.0213 20.93L75.4513 21.2V23H67.8012L67.7712 21.2L69.5713 20.9L76.4713 0.589999ZM78.5413 5.66L78.0013 3.32L77.4313 5.69L74.7613 14.9H81.3613L78.5413 5.66ZM92.9157 2.96L90.5457 2.57V0.709999H97.3557L106.296 14.21L107.976 17.63V2.96L105.396 2.57V0.709999H112.836V2.57L110.526 2.96V23H106.896L97.5657 8.81L95.4657 4.85V20.9L98.4957 21.2V23H90.5457V21.2L92.9157 20.9V2.96ZM116.968 2.96L114.568 2.57V0.709999H130.558L130.948 5.75H128.848L127.858 2.78L121.378 2.51V10.58L125.548 10.49L126.028 8.03H127.948V15.29H126.028L125.548 12.71L121.378 12.62V21.08L128.638 20.72L130.378 16.88L132.628 17.51L131.848 23H114.598V21.2L116.968 20.9V2.96ZM132.546 0.709999H141.546V2.57L138.936 2.96L142.716 16.49L143.406 19.82L144.096 16.49L147.306 5.51L146.466 2.96L144.486 2.57V0.709999H153.876V2.57L150.996 2.96L154.746 16.49L155.556 20.09L156.186 16.49L159.606 2.96L156.906 2.57V0.709999H164.136V2.57L162.216 2.96L156.516 23.15H152.556L148.416 9.14L144.456 23.15H140.556L134.376 2.99L132.546 2.57V0.709999ZM172.494 23.33C171.414 23.33 170.444 23.24 169.584 23.06C168.724 22.88 167.764 22.64 166.704 22.34C166.004 22.14 165.534 22.03 165.294 22.01L165.564 16.46H167.994L168.654 20.33C168.914 20.61 169.374 20.86 170.034 21.08C170.714 21.3 171.484 21.41 172.344 21.41C173.684 21.41 174.684 21.12 175.344 20.54C176.024 19.94 176.364 19.11 176.364 18.05C176.364 17.35 176.164 16.75 175.764 16.25C175.364 15.73 174.814 15.27 174.114 14.87C173.414 14.45 172.454 13.97 171.234 13.43C169.574 12.67 168.194 11.77 167.094 10.73C166.014 9.67 165.474 8.24 165.474 6.44C165.474 5.32 165.764 4.31 166.344 3.41C166.924 2.49 167.784 1.77 168.924 1.25C170.084 0.709999 171.494 0.439999 173.154 0.439999C174.134 0.439999 174.994 0.509999 175.734 0.649998C176.494 0.789999 177.314 0.979999 178.194 1.22C178.714 1.36 179.104 1.45 179.364 1.49L179.184 6.74H176.784L176.154 3.05C175.974 2.87 175.614 2.7 175.074 2.54C174.534 2.36 173.934 2.27 173.274 2.27C172.074 2.27 171.164 2.55 170.544 3.11C169.944 3.65 169.644 4.38 169.644 5.3C169.644 6.04 169.864 6.68 170.304 7.22C170.764 7.76 171.314 8.22 171.954 8.6C172.594 8.96 173.604 9.48 174.984 10.16C176.104 10.7 177.064 11.23 177.864 11.75C178.664 12.27 179.354 12.95 179.934 13.79C180.514 14.61 180.804 15.58 180.804 16.7C180.804 17.8 180.524 18.85 179.964 19.85C179.424 20.85 178.524 21.68 177.264 22.34C176.024 23 174.434 23.33 172.494 23.33Z" fill="#C0C0C0"/>
</g>
<defs>
<filter id="filter0_d" x="0.610107" y="0.439941" width="184.194" height="36.2" filterUnits="userSpaceOnUse" color-interpolation-filters="sRGB">
<feFlood flood-opacity="0" result="BackgroundImageFix"/>
<feColorMatrix in="SourceAlpha" type="matrix" values="0 0 0 0 0 0 0 0 0 0 0 0 0 0 0 0 0 0 127 0"/>
<feOffset dy="4"/>
<feGaussianBlur stdDeviation="2"/>
<feColorMatrix type="matrix" values="0 0 0 0 1 0 0 0 0 1 0 0 0 0 1 0 0 0 0.25 0"/>
<feBlend mode="normal" in2="BackgroundImageFix" result="effect1_dropShadow"/>
<feBlend mode="normal" in="SourceGraphic" in2="effect1_dropShadow" result="shape"/>
</filter>
</defs>
</svg>
