<svg width="181" height="37" viewBox="0 0 181 37" fill="none" xmlns="http://www.w3.org/2000/svg">
<path d="M0.61 35.08C1.41 34.82 2.15 34.36 2.83 33.7C3.53 33.04 4.04 32.21 4.36 31.21C4.58 30.53 4.74 29.72 4.84 28.78C4.94 27.82 4.99 26.48 4.99 24.76V10.99L2.29 10.57V8.71H11.89V10.57L9.37 10.96V22.75C9.37 24.89 9.34 26.55 9.28 27.73C9.24 28.89 9.14 29.82 8.98 30.52C8.56 32.14 7.7 33.48 6.4 34.54C5.1 35.62 3.5 36.32 1.6 36.64L0.61 35.08ZM20.9088 8.59H25.4988L32.4288 28.9L34.1688 29.2V31H25.3188V29.2L27.5688 28.9L26.3988 25H18.6288L17.4588 28.93L19.8888 29.2V31H12.2387L12.2087 29.2L14.0088 28.9L20.9088 8.59ZM22.9788 13.66L22.4388 11.32L21.8688 13.69L19.1988 22.9H25.7988L22.9788 13.66ZM38.5832 10.96L35.3432 10.57V8.71H44.7032L48.2732 21.61L49.1132 25.12L49.8332 21.61L53.3732 8.71H62.6432V10.57L59.3732 10.96L61.7732 28.87L64.2032 29.2V31H54.6332V29.2L57.2732 28.9L55.9532 15.76L55.3832 10.27L54.2732 14.89L49.9232 30.07H46.7432L42.3032 15.67L40.7732 10.27L40.3232 15.76L39.1832 28.9L42.2132 29.2V31H33.8732V29.2L36.3932 28.9L38.5832 10.96ZM72.4713 8.59H77.0613L83.9913 28.9L85.7313 29.2V31H76.8813V29.2L79.1313 28.9L77.9613 25H70.1913L69.0213 28.93L71.4513 29.2V31H63.8012L63.7712 29.2L65.5713 28.9L72.4713 8.59ZM74.5413 13.66L74.0013 11.32L73.4313 13.69L70.7613 22.9H77.3613L74.5413 13.66ZM88.9157 10.96L86.5457 10.57V8.71H93.3557L102.296 22.21L103.976 25.63V10.96L101.396 10.57V8.71H108.836V10.57L106.526 10.96V31H102.896L93.5657 16.81L91.4657 12.85V28.9L94.4957 29.2V31H86.5457V29.2L88.9157 28.9V10.96ZM112.968 10.96L110.568 10.57V8.71H126.558L126.948 13.75H124.848L123.858 10.78L117.378 10.51V18.58L121.548 18.49L122.028 16.03H123.948V23.29H122.028L121.548 20.71L117.378 20.62V29.08L124.638 28.72L126.378 24.88L128.628 25.51L127.848 31H110.598V29.2L112.968 28.9V10.96ZM128.546 8.71H137.546V10.57L134.936 10.96L138.716 24.49L139.406 27.82L140.096 24.49L143.306 13.51L142.466 10.96L140.486 10.57V8.71H149.876V10.57L146.996 10.96L150.746 24.49L151.556 28.09L152.186 24.49L155.606 10.96L152.906 10.57V8.71H160.136V10.57L158.216 10.96L152.516 31.15H148.556L144.416 17.14L140.456 31.15H136.556L130.376 10.99L128.546 10.57V8.71ZM168.494 31.33C167.414 31.33 166.444 31.24 165.584 31.06C164.724 30.88 163.764 30.64 162.704 30.34C162.004 30.14 161.534 30.03 161.294 30.01L161.564 24.46H163.994L164.654 28.33C164.914 28.61 165.374 28.86 166.034 29.08C166.714 29.3 167.484 29.41 168.344 29.41C169.684 29.41 170.684 29.12 171.344 28.54C172.024 27.94 172.364 27.11 172.364 26.05C172.364 25.35 172.164 24.75 171.764 24.25C171.364 23.73 170.814 23.27 170.114 22.87C169.414 22.45 168.454 21.97 167.234 21.43C165.574 20.67 164.194 19.77 163.094 18.73C162.014 17.67 161.474 16.24 161.474 14.44C161.474 13.32 161.764 12.31 162.344 11.41C162.924 10.49 163.784 9.77 164.924 9.25C166.084 8.71 167.494 8.44 169.154 8.44C170.134 8.44 170.994 8.51 171.734 8.65C172.494 8.79 173.314 8.98 174.194 9.22C174.714 9.36 175.104 9.45 175.364 9.49L175.184 14.74H172.784L172.154 11.05C171.974 10.87 171.614 10.7 171.074 10.54C170.534 10.36 169.934 10.27 169.274 10.27C168.074 10.27 167.164 10.55 166.544 11.11C165.944 11.65 165.644 12.38 165.644 13.3C165.644 14.04 165.864 14.68 166.304 15.22C166.764 15.76 167.314 16.22 167.954 16.6C168.594 16.96 169.604 17.48 170.984 18.16C172.104 18.7 173.064 19.23 173.864 19.75C174.664 20.27 175.354 20.95 175.934 21.79C176.514 22.61 176.804 23.58 176.804 24.7C176.804 25.8 176.524 26.85 175.964 27.85C175.424 28.85 174.524 29.68 173.264 30.34C172.024 31 170.434 31.33 168.494 31.33Z" fill="white"/>
</svg>
